#!OML:ASF E:\Steps\Project 1\Capture day 1\Session 2\Subject.ASF
:FULLY-SPECIFIED
:DEGREES
461
root 12.1626 17.1507 16.772 -154.186 -1.70759 177.114
lowerback -30.8441 -2.17717 -6.37412
upperback -2.90737 -1.70737 0.0831069
thorax 12.9823 -1.52984 2.7698
lowerneck -5.07604 -1.49794 0.517387
upperneck 0.0527866 -1.96549 -1.0984
head 0.839625 -0.977992 -0.465176
rclavicle -9.91439e-015 -3.08116e-015
rhumerus -38.5629 -30.1646 -69.4196
rradius 21.0704
rwrist 7.67766
rhand -5.21331 -411.87
rfingers 7.12502
rthumb 20.5884 -80.7983
lclavicle -9.91439e-015 -3.08116e-015
lhumerus -29.1847 8.83849 81.9473
lradius 14.8638
lwrist -11.8547
lhand -20.5053 -11.9609
lfingers 7.12502
lthumb 5.85197 17.9383
rfemur -22.0605 2.5436 19.9417
rtibia 6.33768
rfoot -17.6391 5.53146
rtoes -16.2995
lfemur -22.6822 -7.92707 -23.4246
ltibia 8.18339
lfoot -5.39467 -4.1321
ltoes -6.18725
462
root 12.156 17.1516 16.7738 -154.155 -1.69574 177.178
lowerback -30.9353 -2.18616 -6.31542
upperback -2.92897 -1.74732 0.129977
thorax 13.0019 -1.54887 2.77014
lowerneck -5.04374 -1.53039 0.447839
upperneck 0.116393 -2.00797 -1.01008
head 0.854992 -0.999155 -0.427584
rclavicle -4.22417e-015 7.7526e-015
rhumerus -38.6488 -30.4121 -69.2323
rradius 21.086
rwrist 8.06139
rhand -5.07837 -412.21
rfingers 7.12502
rthumb 20.7181 -81.1245
lclavicle -4.22417e-015 7.7526e-015
lhumerus -29.1562 9.08198 81.9084
lradius 14.6797
lwrist -12.295
lhand -20.5299 -12.0333
lfingers 7.12502
lthumb 5.82821 17.8666
rfemur -22.0814 2.60852 19.9663
rtibia 6.32669
rfoot -18.7596 5.47363
rtoes -14.7718
lfemur -22.7279 -7.93101 -23.3609
ltibia 8.19
lfoot -6.16833 -4.14644
ltoes -16.2844
463
root 12.1489 17.1521 16.7753 -154.215 -1.66218 177.16
lowerback -30.9047 -2.21117 -6.33402
upperback -2.93991 -1.77879 0.142263
thorax 12.9798 -1.56401 2.78194
lowerneck -5.07248 -1.61018 0.714026
upperneck 0.483857 -2.1309 -1.25303
head 0.969798 -1.06753 -0.553044
rclavicle 3.93842e-015 4.27387e-015
rhumerus -38.7563 -30.6016 -69.1033
rradius 21.2026
rwrist 8.30646
rhand -4.85072 -412.395
rfingers 7.12502
rthumb 20.9368 -81.2855
lclavicle 3.93842e-015 4.27387e-015
lhumerus -29.0996 9.36088 81.8377
lradius 14.4357
lwrist -12.8288
lhand -20.6466 -12.0273
lfingers 7.12502
lthumb 5.71554 17.8756
rfemur -22.0011 2.71543 19.8795
rtibia 6.29199
rfoot -17.6358 5.42414
rtoes -16.2832
lfemur -22.6484 -7.965 -23.4138
ltibia 8.16712
lfoot -5.48488 -3.92071
ltoes -7.6604
464
root 12.1405 17.1519 16.7774 -154.305 -1.56727 177.125
lowerback -30.7931 -2.25216 -6.33588
upperback -2.95553 -1.84154 0.165132
thorax 12.9208 -1.59074 2.78662
lowerneck -5.14166 -1.59908 0.917289
upperneck 0.866137 -2.12529 -1.54025
head 1.09831 -1.07198 -0.680574
rclavicle 1.16848e-014 2.65378e-014
rhumerus -38.557 -30.1368 -69.4491
rradius 21.394
rwrist 7.72186
rhand -5.08547 -412.864
rfingers 7.12502
rthumb 20.7113 -81.7791
lclavicle 1.16848e-014 2.65378e-014
lhumerus -29.0151 9.43695 81.8537
lradius 14.2278
lwrist -13.2383
lhand -20.8971 -11.8975
lfingers 7.12502
lthumb 5.47371 18.0118
rfemur -21.9167 2.72568 19.7808
rtibia 6.26076
rfoot -18.7287 5.53439
rtoes -14.6575
lfemur -22.5337 -8.00328 -23.5126
ltibia 8.14603
lfoot -6.19241 -3.8852
ltoes -16.2546
465
root 12.1314 17.1527 16.7804 -154.384 -1.53073 177.158
lowerback -30.7142 -2.24198 -6.23442
upperback -2.94549 -1.86065 0.151869
thorax 12.8986 -1.59152 2.71307
lowerneck -5.121 -1.68322 0.846198
upperneck 0.749143 -2.23707 -1.35845
head 1.05846 -1.12441 -0.613416
rclavicle 5.38582e-015 -4.07509e-015
rhumerus -38.2556 -29.3711 -70.1263
rradius 21.6602
rwrist 6.65071
rhand -5.69564 -413.301
rfingers 7.12502
rthumb 20.1249 -82.2784
lclavicle 5.38582e-015 -4.07509e-015
lhumerus -28.8335 9.25511 81.8963
lradius 14.0335
lwrist -13.3879
lhand -20.7354 -12.0778
lfingers 7.12502
lthumb 5.62983 17.8274
rfemur -21.8369 2.66098 19.7972
rtibia 6.2335
rfoot -17.5725 5.62911
rtoes -15.986
lfemur -22.4452 -8.01592 -23.5278
ltibia 8.13127
lfoot -5.53065 -3.79011
ltoes -7.55563
